<?xml version="1.0" encoding="UTF-8" standalone="no"?>
<svg xmlns="http://www.w3.org/2000/svg"
   width="184"
   height="106">
    <rect
       x="3"
       y="3"
       width="178"
       height="100"
       style="fill:#729fcf;stroke:#204a87;stroke-width:6;stroke-linecap:round;stroke-linejoin:round;stroke-miterlimit:4;stroke-opacity:1" />
  <path
     d="M 34.90625,68.736328 L 43.929688,68.736328 L 43.929688,37.591797 L 34.113281,39.560547 L 34.113281,34.529297 L 43.875,32.560547 L 49.398438,32.560547 L 49.398438,68.736328 L 58.421875,68.736328 L 58.421875,73.384766 L 34.90625,73.384766 L 34.90625,68.736328 M 82.101562,50.771484 C 79.62238,50.771507 77.653632,51.619162 76.195312,53.314453 C 74.755197,55.009784 74.035146,57.334 74.035156,60.287109 C 74.035146,63.222015 74.755197,65.546232 76.195312,67.259766 C 77.653632,68.955083 79.62238,69.802738 82.101562,69.802734 C 84.580708,69.802738 86.540342,68.955083 87.980469,67.259766 C 89.438776,65.546232 90.167942,63.222015 90.167969,60.287109 C 90.167942,57.334 89.438776,55.009784 87.980469,53.314453 C 86.540342,51.619162 84.580708,50.771507 82.101562,50.771484 M 93.066406,33.462891 L 93.066406,38.494141 C 91.680962,37.837926 90.277317,37.336625 88.855469,36.990234 C 87.451799,36.643917 86.057269,36.47074 84.671875,36.470703 C 81.026024,36.47074 78.236965,37.701208 76.304688,40.162109 C 74.390614,42.623078 73.296865,46.341824 73.023438,51.318359 C 74.098948,49.732446 75.447905,48.520207 77.070312,47.681641 C 78.692693,46.824896 80.47915,46.396511 82.429688,46.396484 C 86.531227,46.396511 89.766901,47.645208 92.136719,50.142578 C 94.524709,52.621766 95.718718,56.003273 95.71875,60.287109 C 95.718718,64.479827 94.479136,67.843104 92,70.376953 C 89.520807,72.910808 86.221332,74.177734 82.101562,74.177734 C 77.380195,74.177734 73.770823,72.373048 71.273438,68.763672 C 68.776037,65.136076 67.52734,59.886081 67.527344,53.013672 C 67.52734,46.560574 69.058588,41.419954 72.121094,37.591797 C 75.183582,33.745482 79.294255,31.822307 84.453125,31.822266 C 85.838519,31.822307 87.233049,31.959026 88.636719,32.232422 C 90.058567,32.5059 91.535128,32.916056 93.066406,33.462891 M 105.83594,66.439453 L 111.60547,66.439453 L 111.60547,73.384766 L 105.83594,73.384766 L 105.83594,66.439453 M 105.83594,44.427734 L 111.60547,44.427734 L 111.60547,51.373047 L 105.83594,51.373047 L 105.83594,44.427734 M 124.34766,72.537109 L 124.34766,67.505859 C 125.73307,68.162115 127.13671,68.663416 128.55859,69.009766 C 129.98046,69.356124 131.37499,69.529301 132.74219,69.529297 C 136.388,69.529301 139.16795,68.307948 141.08203,65.865234 C 143.0143,63.404307 144.11716,59.676446 144.39062,54.681641 C 143.33331,56.249366 141.99347,57.45249 140.37109,58.291016 C 138.74868,59.129572 136.95311,59.548842 134.98438,59.548828 C 130.90103,59.548842 127.66536,58.318374 125.27734,55.857422 C 122.90755,53.378275 121.72265,49.996768 121.72266,45.712891 C 121.72265,41.520214 122.96223,38.156936 125.44141,35.623047 C 127.92056,33.089233 131.22004,31.822307 135.33984,31.822266 C 140.06118,31.822307 143.66143,33.636107 146.14062,37.263672 C 148.63799,40.873079 149.88669,46.123074 149.88672,53.013672 C 149.88669,59.448582 148.35544,64.589202 145.29297,68.435547 C 142.24867,72.263673 138.14712,74.177734 132.98828,74.177734 C 131.60285,74.177734 130.19921,74.041015 128.77734,73.767578 C 127.35546,73.494141 125.8789,73.083985 124.34766,72.537109 M 135.33984,55.228516 C 137.81899,55.228534 139.77862,54.380878 141.21875,52.685547 C 142.67706,50.990257 143.40622,48.66604 143.40625,45.712891 C 143.40622,42.778025 142.67706,40.462924 141.21875,38.767578 C 139.77862,37.054073 137.81899,36.197303 135.33984,36.197266 C 132.86066,36.197303 130.89191,37.054073 129.43359,38.767578 C 127.99348,40.462924 127.27343,42.778025 127.27344,45.712891 C 127.27343,48.66604 127.99348,50.990257 129.43359,52.685547 C 130.89191,54.380878 132.86066,55.228534 135.33984,55.228516" />
</svg>
